<svg width="24" height="25" viewBox="0 0 24 25" fill="none" xmlns="http://www.w3.org/2000/svg">
<path d="M12 0.928589C9.62663 0.928589 7.30655 1.63238 5.33316 2.95095C3.35977 4.26953 1.8217 6.14367 0.913451 8.33639C0.00519943 10.5291 -0.232441 12.9419 0.230582 15.2697C0.693605 17.5974 1.83649 19.7356 3.51472 21.4139C5.19295 23.0921 7.33115 24.235 9.65892 24.698C11.9867 25.161 14.3995 24.9234 16.5922 24.0151C18.7849 23.1069 20.6591 21.5688 21.9776 19.5954C23.2962 17.622 24 15.302 24 12.9286C23.9965 9.74707 22.7311 6.69688 20.4814 4.4472C18.2317 2.19753 15.1815 0.932118 12 0.928589ZM12 22.2619C10.154 22.2619 8.34954 21.7145 6.81468 20.689C5.27982 19.6634 4.08355 18.2057 3.37713 16.5003C2.67071 14.7949 2.48588 12.9182 2.84601 11.1077C3.20614 9.29725 4.09505 7.63421 5.40034 6.32892C6.70563 5.02363 8.36867 4.13472 10.1792 3.77459C11.9896 3.41446 13.8663 3.59929 15.5717 4.30571C17.2772 5.01213 18.7348 6.20841 19.7604 7.74327C20.7859 9.27812 21.3333 11.0826 21.3333 12.9286C21.3307 15.4031 20.3465 17.7756 18.5967 19.5253C16.847 21.2751 14.4745 22.2593 12 22.2619ZM17.3878 10.2075C17.5121 10.3313 17.6107 10.4785 17.678 10.6406C17.7453 10.8027 17.7799 10.9764 17.7799 11.1519C17.7799 11.3274 17.7453 11.5012 17.678 11.6632C17.6107 11.8253 17.5121 11.9725 17.3878 12.0964L12.9433 16.5408C12.8195 16.6651 12.6723 16.7637 12.5102 16.831C12.3481 16.8983 12.1744 16.933 11.9989 16.933C11.8234 16.933 11.6496 16.8983 11.4876 16.831C11.3255 16.7637 11.1783 16.6651 11.0544 16.5408L6.61 12.0964C6.35952 11.8459 6.2188 11.5062 6.2188 11.1519C6.2188 10.7977 6.35952 10.458 6.61 10.2075C6.86049 9.95699 7.20021 9.81627 7.55445 9.81627C7.90868 9.81627 8.24841 9.95699 8.49889 10.2075L12 13.7064L15.5011 10.2041C15.6252 10.0804 15.7724 9.98231 15.9344 9.91549C16.0964 9.84868 16.2699 9.81445 16.4451 9.81476C16.6204 9.81507 16.7938 9.84991 16.9555 9.9173C17.1173 9.98468 17.2642 10.0833 17.3878 10.2075Z" fill="#F1F1F1"/>
</svg>
