<svg width="50" height="46" viewBox="0 0 50 46" fill="none" xmlns="http://www.w3.org/2000/svg">
<path d="M35.3343 15.3138L31.2275 16.98L27.5303 15.33C27.2341 15.1978 26.9037 15.1978 26.6076 15.33L22.9311 16.9708L19.2546 15.33C18.9712 15.2034 18.656 15.1976 18.3691 15.3138L13.8174 17.16C13.6642 17.2221 13.5234 17.3173 13.4032 17.4401C13.2829 17.5629 13.1855 17.7109 13.1166 17.8757C12.9773 18.2085 12.9622 18.5894 13.0747 18.9346C13.1872 19.2798 13.418 19.561 13.7164 19.7164C14.0147 19.8717 14.3562 19.8885 14.6657 19.7631L15.5057 19.4227C15.6182 20.6758 16.1437 21.8378 16.9804 22.6835C17.8171 23.5291 18.9055 23.9983 20.0346 24H29.9654C31.1722 23.9985 32.3291 23.4631 33.1824 22.5113C34.0357 21.5595 34.5157 20.2691 34.5171 18.9231V18.5919L36.1826 17.9169C36.3358 17.8548 36.4766 17.7596 36.5968 17.6368C36.7171 17.514 36.8145 17.366 36.8834 17.2012C36.9524 17.0364 36.9916 16.8581 36.9988 16.6764C37.006 16.4947 36.981 16.3132 36.9253 16.1423C36.8696 15.9714 36.7843 15.8144 36.6742 15.6802C36.5641 15.5461 36.4314 15.4375 36.2836 15.3605C36.1359 15.2836 35.976 15.2399 35.8131 15.2319C35.6502 15.2239 35.4875 15.2517 35.3343 15.3138ZM29.9654 21.2308H20.0346C19.4859 21.2308 18.9596 20.9876 18.5716 20.5549C18.1836 20.1221 17.9656 19.5351 17.9656 18.9231V18.4246L18.7725 18.0969L22.4697 19.7469C22.7659 19.8792 23.0963 19.8792 23.3924 19.7469L27.0689 18.1062L30.7454 19.7469C31.0288 19.8736 31.344 19.8793 31.6309 19.7631L31.9299 19.6408C31.7943 20.1028 31.5314 20.5053 31.1787 20.7908C30.8259 21.0764 30.4013 21.2303 29.9654 21.2308ZM13.0002 12.4615C13.0002 12.0943 13.131 11.7421 13.3638 11.4825C13.5966 11.2228 13.9123 11.0769 14.2416 11.0769H35.7584C36.0877 11.0769 36.4034 11.2228 36.6362 11.4825C36.869 11.7421 36.9998 12.0943 36.9998 12.4615C36.9998 12.8288 36.869 13.1809 36.6362 13.4406C36.4034 13.7003 36.0877 13.8462 35.7584 13.8462H14.2416C13.9123 13.8462 13.5966 13.7003 13.3638 13.4406C13.131 13.1809 13.0002 12.8288 13.0002 12.4615ZM16.745 9.69231H33.255C33.5849 9.69201 33.9101 9.6053 34.2044 9.43915C34.4987 9.27301 34.7539 9.03207 34.9495 8.73577C35.1405 8.44705 35.2671 8.11177 35.3189 7.75763C35.3708 7.4035 35.3462 7.0407 35.2474 6.69923C34.1157 2.75538 29.9023 0 25 0C20.0977 0 15.8853 2.75423 14.7526 6.69808C14.6535 7.03951 14.6289 7.40236 14.6807 7.75655C14.7325 8.11073 14.8593 8.44603 15.0505 8.73462C15.2457 9.0314 15.5008 9.27275 15.7952 9.43913C16.0896 9.60551 16.415 9.69224 16.745 9.69231ZM25 2.76923C28.4861 2.76923 31.5802 4.48269 32.655 6.92308H17.345C18.4208 4.48269 21.5149 2.76923 25 2.76923Z" fill="white"/>
<path d="M5.7711 28.5195C6.18125 28.5664 6.52695 28.6016 6.8082 28.625C7.08945 28.6367 7.31211 28.6484 7.47617 28.6602C7.67539 28.6719 7.8336 28.6777 7.95078 28.6777C8.15 28.6777 8.37852 28.6719 8.63633 28.6602C8.85899 28.6484 9.1168 28.6309 9.40977 28.6074C9.71445 28.5723 10.0426 28.5195 10.3941 28.4492C10.2301 28.625 10.0953 28.7949 9.98985 28.959C9.88438 29.1113 9.80235 29.252 9.74375 29.3809C9.67344 29.5215 9.61485 29.6504 9.56797 29.7676C9.5211 29.9199 9.46836 30.1543 9.40977 30.4707C9.35117 30.7402 9.28672 31.1211 9.21641 31.6133C9.15781 32.1055 9.08164 32.75 8.98789 33.5469C9.38633 33.5586 9.73203 33.5645 10.025 33.5645C10.318 33.5527 10.5641 33.5469 10.7633 33.5469H11.3434C11.5074 33.5352 11.6949 33.5234 11.9059 33.5117C12.2574 33.5 12.7906 33.4648 13.5055 33.4062C13.5641 32.8672 13.5934 32.4043 13.5934 32.0176C13.6051 31.6191 13.5992 31.2852 13.5758 31.0156C13.5523 30.7109 13.5172 30.4531 13.4703 30.2422C13.4352 30.125 13.3824 29.9844 13.3121 29.8203C13.2535 29.6797 13.1715 29.5098 13.066 29.3105C12.9723 29.0996 12.8434 28.8477 12.6793 28.5547C12.984 28.6016 13.2535 28.6367 13.4879 28.6602C13.734 28.6719 13.9391 28.6836 14.1031 28.6953C14.2906 28.707 14.4488 28.7129 14.5777 28.7129C14.7066 28.7129 14.8766 28.707 15.0875 28.6953C15.2633 28.6836 15.4801 28.6777 15.7379 28.6777C15.9957 28.666 16.3121 28.6484 16.6871 28.625C16.5934 28.7891 16.5113 28.959 16.441 29.1348C16.3707 29.3105 16.3121 29.4688 16.2652 29.6094C16.2184 29.7734 16.1715 29.9375 16.1246 30.1016C16.066 30.3477 16.0133 30.7051 15.9664 31.1738C15.9313 31.6426 15.8961 32.1641 15.8609 32.7383C15.8375 33.3125 15.8141 33.9102 15.7906 34.5312C15.7789 35.1523 15.7672 35.7383 15.7555 36.2891C15.7555 36.8398 15.7613 37.332 15.773 37.7656C15.7848 38.1875 15.8082 38.4863 15.8434 38.6621C15.8785 38.873 15.9371 39.0898 16.0191 39.3125C16.0895 39.5117 16.1832 39.7285 16.3004 39.9629C16.4176 40.1855 16.5699 40.3965 16.7574 40.5957L12.5211 40.9121C12.6969 40.748 12.8375 40.5898 12.943 40.4375C13.0484 40.2734 13.1305 40.1328 13.1891 40.0156C13.2477 39.8867 13.2887 39.7637 13.3121 39.6465C13.3238 39.5059 13.3414 39.2598 13.3648 38.9082C13.3883 38.6152 13.4117 38.1992 13.4352 37.6602C13.4586 37.1211 13.482 36.4062 13.5055 35.5156C13.3414 35.5156 13.1422 35.5215 12.9078 35.5332C12.6852 35.5332 12.4742 35.5391 12.275 35.5508C12.0406 35.5625 11.7945 35.5684 11.5367 35.5684C11.2789 35.5801 11.0094 35.5918 10.7281 35.6035C10.4938 35.627 10.2301 35.6504 9.93711 35.6738C9.65586 35.6855 9.37461 35.7031 9.09336 35.7266C9.06992 36.2188 9.06992 36.6523 9.09336 37.0273C9.1168 37.3906 9.15195 37.7012 9.19883 37.959C9.2457 38.2637 9.3043 38.5273 9.37461 38.75C9.44492 38.9609 9.5211 39.1719 9.60313 39.3828C9.67344 39.5703 9.75547 39.7695 9.84922 39.9805C9.95469 40.1914 10.0602 40.3789 10.1656 40.543C9.94297 40.5195 9.73789 40.502 9.55039 40.4902C9.36289 40.4668 9.19883 40.4434 9.0582 40.4199C8.89414 40.4082 8.73594 40.3965 8.5836 40.3848C8.43125 40.3848 8.24961 40.3789 8.03867 40.3672C7.85117 40.3555 7.6168 40.3496 7.33555 40.3496C7.0543 40.3379 6.72617 40.332 6.35117 40.332C6.57383 40.1094 6.74961 39.8926 6.87852 39.6816C7.01914 39.459 7.11875 39.2598 7.17735 39.084C7.24766 38.873 7.29453 38.6797 7.31797 38.5039C7.32969 38.3516 7.33555 38.0645 7.33555 37.6426C7.34727 37.2207 7.34727 36.7402 7.33555 36.2012C7.33555 35.6504 7.32969 35.0762 7.31797 34.4785C7.30625 33.8691 7.28867 33.3008 7.26524 32.7734C7.25352 32.2461 7.23594 31.7949 7.2125 31.4199C7.20078 31.0332 7.18906 30.793 7.17735 30.6992C7.11875 30.4883 7.03086 30.2598 6.91367 30.0137C6.8082 29.8145 6.66758 29.5859 6.4918 29.3281C6.31602 29.0586 6.07578 28.7891 5.7711 28.5195ZM19.0848 28.8711C19.7879 28.9297 20.4031 28.9648 20.9305 28.9766C21.4695 28.9883 21.9266 28.9941 22.3016 28.9941C22.7352 28.9941 23.1102 28.9824 23.4266 28.959C23.7547 28.9238 24.1824 28.877 24.7098 28.8184C25.1551 28.7598 25.7293 28.6836 26.4324 28.5898C27.1355 28.4844 27.991 28.3496 28.9988 28.1855C28.8699 28.3848 28.7586 28.5957 28.6648 28.8184C28.5828 29.0293 28.5125 29.2227 28.4539 29.3984C28.3953 29.6094 28.3426 29.8145 28.2957 30.0137C28.2605 30.2363 28.2195 30.5117 28.1727 30.8398C28.1258 31.1211 28.0672 31.4785 27.9969 31.9121C27.9383 32.334 27.8621 32.8379 27.7684 33.4238C27.4168 32.5098 27.0594 31.8066 26.6961 31.3145C26.3445 30.8223 26.0164 30.459 25.7117 30.2246C25.3602 29.9551 25.0262 29.8027 24.7098 29.7676C24.2527 29.7676 23.8777 29.8555 23.5848 30.0312C23.2918 30.207 23.0516 30.4355 22.8641 30.7168C22.6883 30.9863 22.5535 31.2852 22.4598 31.6133C22.366 31.9297 22.3016 32.2402 22.2664 32.5449C22.2313 32.8379 22.2078 33.1016 22.1961 33.3359C22.1844 33.5586 22.1727 33.7109 22.1609 33.793C22.5711 33.7695 22.9168 33.7402 23.198 33.7051C23.4793 33.6699 23.702 33.6348 23.866 33.5996C24.0652 33.5527 24.2234 33.5059 24.3406 33.459C24.5164 33.3652 24.6922 33.2539 24.868 33.125C25.0203 33.0078 25.1785 32.8672 25.3426 32.7031C25.5184 32.5391 25.6707 32.3398 25.7996 32.1055C25.7293 32.5273 25.6648 32.8789 25.6063 33.1602C25.5594 33.4414 25.5184 33.6641 25.4832 33.8281C25.4363 34.0273 25.407 34.1797 25.3953 34.2852C25.3719 34.3906 25.3426 34.5371 25.3074 34.7246C25.2723 34.8887 25.2313 35.0996 25.1844 35.3574C25.1375 35.6152 25.0848 35.9375 25.0262 36.3242C24.8855 36.0781 24.7391 35.8789 24.5867 35.7266C24.4344 35.5625 24.2938 35.4336 24.1648 35.3398C24.0125 35.2344 23.866 35.1523 23.7254 35.0938C23.573 35.0469 23.409 35 23.2332 34.9531C23.0809 34.918 22.8992 34.8828 22.6883 34.8477C22.4891 34.8008 22.2723 34.7598 22.0379 34.7246C22.0613 35.3574 22.0965 35.9023 22.1434 36.3594C22.1902 36.8047 22.2313 37.1797 22.2664 37.4844C22.3133 37.8359 22.3602 38.1289 22.407 38.3633C22.4656 38.5977 22.5594 38.8496 22.6883 39.1191C22.7938 39.3535 22.9402 39.623 23.1277 39.9277C23.327 40.2207 23.5789 40.5371 23.8836 40.877C23.6492 40.8184 23.4031 40.7773 23.1453 40.7539C22.8875 40.7305 22.659 40.7129 22.4598 40.7012C22.2137 40.6895 21.9793 40.6895 21.7566 40.7012C21.5223 40.7129 21.2645 40.7363 20.9832 40.7715C20.7488 40.7949 20.4793 40.8301 20.1746 40.877C19.8699 40.9238 19.5477 40.9766 19.2078 41.0352C19.407 40.8359 19.5711 40.6367 19.7 40.4375C19.8289 40.2383 19.9227 40.0625 19.9813 39.9102C20.0516 39.7344 20.0984 39.5645 20.1219 39.4004C20.1336 39.2598 20.1395 38.9551 20.1395 38.4863C20.1395 38.0059 20.1336 37.4492 20.1219 36.8164C20.1102 36.1719 20.0926 35.4922 20.0691 34.7773C20.0457 34.0625 20.0223 33.3945 19.9988 32.7734C19.9754 32.1406 19.9461 31.6016 19.9109 31.1562C19.8875 30.7109 19.8582 30.4414 19.823 30.3477C19.7762 30.2305 19.7234 30.0957 19.6648 29.9434C19.5711 29.6973 19.3777 29.3398 19.0848 28.8711ZM29.7266 28.3965C30.1016 28.4082 30.4297 28.4141 30.7109 28.4141C30.9922 28.4023 31.2207 28.3965 31.3965 28.3965H31.9063C32.0352 28.3848 32.1934 28.3789 32.3809 28.3789C32.5449 28.3789 32.7441 28.3789 32.9785 28.3789C33.2129 28.3789 33.4824 28.3848 33.7871 28.3965C33.8809 28.7246 33.9863 29.0469 34.1035 29.3633C34.2324 29.668 34.3438 29.9434 34.4375 30.1895C34.5547 30.4824 34.6719 30.7578 34.7891 31.0156C34.9063 31.2734 35.0469 31.584 35.2109 31.9473C35.3516 32.252 35.5215 32.627 35.7207 33.0723C35.9199 33.5059 36.1543 34.0039 36.4238 34.5664C36.5527 34.2031 36.6699 33.8691 36.7754 33.5645C36.8926 33.2598 36.9922 32.9961 37.0742 32.7734C37.168 32.5156 37.2441 32.2812 37.3027 32.0703C37.3613 31.8594 37.4258 31.6016 37.4961 31.2969C37.5547 31.0391 37.6191 30.7285 37.6895 30.3652C37.7715 30.002 37.8535 29.5801 37.9355 29.0996C38.2754 29.0996 38.5801 29.0996 38.8496 29.0996C39.1191 29.0996 39.3535 29.0938 39.5527 29.082C39.7754 29.082 39.9746 29.0762 40.1504 29.0645C40.3379 29.0645 40.5898 29.0527 40.9063 29.0293C41.1758 29.0059 41.5332 28.9883 41.9785 28.9766C42.4355 28.9531 42.998 28.9238 43.666 28.8887C43.4199 29.0645 43.2207 29.2402 43.0684 29.416C42.9277 29.5801 42.8164 29.7266 42.7344 29.8555C42.6406 30.0078 42.582 30.1543 42.5586 30.2949C42.5352 30.4121 42.5117 30.6816 42.4883 31.1035C42.4766 31.5254 42.459 32.0293 42.4355 32.6152C42.4238 33.1895 42.4121 33.8047 42.4004 34.4609C42.4004 35.1172 42.4063 35.7383 42.418 36.3242C42.4297 36.9102 42.4473 37.4199 42.4707 37.8535C42.5059 38.2754 42.5527 38.5449 42.6113 38.6621C42.6934 38.8027 42.8047 38.9668 42.9453 39.1543C43.0742 39.3184 43.2383 39.5059 43.4375 39.7168C43.6484 39.9277 43.9238 40.1621 44.2637 40.4199C43.7246 40.4434 43.2734 40.4609 42.9102 40.4727C42.5586 40.4844 42.2656 40.4961 42.0313 40.5078C41.7617 40.5195 41.5449 40.5254 41.3809 40.5254C41.2051 40.5254 40.9648 40.5312 40.6602 40.543C40.3906 40.5547 40.0332 40.5723 39.5879 40.5957C39.1426 40.6074 38.5684 40.6309 37.8652 40.666C38.0293 40.4785 38.1816 40.291 38.3223 40.1035C38.4629 39.916 38.5801 39.7461 38.6738 39.5938C38.791 39.418 38.8906 39.248 38.9727 39.084C39.0547 38.8613 39.1191 38.457 39.166 37.8711C39.2129 37.3672 39.248 36.6465 39.2715 35.709C39.2949 34.7598 39.2949 33.4883 39.2715 31.8945C39.0488 32.2578 38.8496 32.6211 38.6738 32.9844C38.5098 33.3359 38.3633 33.6582 38.2344 33.9512C38.0938 34.291 37.9648 34.6191 37.8477 34.9355C37.7305 35.2637 37.6074 35.627 37.4785 36.0254C37.3613 36.3652 37.2207 36.7695 37.0566 37.2383C36.9043 37.707 36.7285 38.2227 36.5293 38.7852L35.8613 38.8203C35.7676 38.3516 35.6738 37.9297 35.5801 37.5547C35.4863 37.168 35.3926 36.8398 35.2988 36.5703C35.1934 36.2539 35.0879 35.9727 34.9824 35.7266C34.8652 35.4805 34.7363 35.2051 34.5957 34.9004C34.4668 34.6426 34.3086 34.3379 34.1211 33.9863C33.9453 33.6348 33.7402 33.2422 33.5059 32.8086C33.3887 34.0039 33.3184 34.9766 33.2949 35.7266C33.2715 36.4648 33.2715 37.0391 33.2949 37.4492C33.3184 37.9414 33.3535 38.2988 33.4004 38.5215C33.4707 38.7207 33.582 38.9434 33.7344 39.1895C33.8633 39.4004 34.0391 39.6523 34.2617 39.9453C34.4961 40.2266 34.7949 40.543 35.1582 40.8945C34.9004 40.8945 34.6309 40.8945 34.3496 40.8945C34.0684 40.8945 33.8105 40.9004 33.5762 40.9121C33.2949 40.9238 33.0195 40.9297 32.75 40.9297C32.4688 40.9414 32.1406 40.959 31.7656 40.9824C31.4375 41.0059 31.0449 41.0293 30.5879 41.0527C30.1309 41.0762 29.6035 41.1172 29.0059 41.1758C29.2637 41.0117 29.4746 40.8535 29.6387 40.7012C29.8027 40.5371 29.9316 40.3906 30.0254 40.2617C30.1426 40.1094 30.2305 39.957 30.2891 39.8047C30.3242 39.7109 30.3535 39.5059 30.377 39.1895C30.4121 38.873 30.4414 38.4863 30.4648 38.0293C30.5 37.5723 30.5234 37.0625 30.5352 36.5C30.5586 35.9375 30.5762 35.3691 30.5879 34.7949C30.6113 34.209 30.6289 33.6406 30.6406 33.0898C30.6523 32.5273 30.6582 32.0234 30.6582 31.5781C30.6699 31.1211 30.6758 30.7402 30.6758 30.4355C30.6758 30.1309 30.6758 29.9375 30.6758 29.8555C30.6406 29.6797 30.5879 29.5039 30.5176 29.3281C30.459 29.1758 30.3652 29.0176 30.2363 28.8535C30.1074 28.6895 29.9375 28.5371 29.7266 28.3965Z" fill="white"/>
</svg>
