<svg width="24" height="20" viewBox="0 0 24 20" fill="none" xmlns="http://www.w3.org/2000/svg">
<path d="M24 10C24 10.4188 23.8483 10.8204 23.5782 11.1165C23.3082 11.4126 22.9419 11.5789 22.56 11.5789H1.44C1.05809 11.5789 0.691819 11.4126 0.421766 11.1165C0.151714 10.8204 0 10.4188 0 10C0 9.58124 0.151714 9.17963 0.421766 8.88352C0.691819 8.58741 1.05809 8.42105 1.44 8.42105H22.56C22.9419 8.42105 23.3082 8.58741 23.5782 8.88352C23.8483 9.17963 24 9.58124 24 10ZM1.44 3.15789H22.56C22.9419 3.15789 23.3082 2.99154 23.5782 2.69543C23.8483 2.39932 24 1.99771 24 1.57895C24 1.16018 23.8483 0.758573 23.5782 0.462463C23.3082 0.166353 22.9419 0 22.56 0H1.44C1.05809 0 0.691819 0.166353 0.421766 0.462463C0.151714 0.758573 0 1.16018 0 1.57895C0 1.99771 0.151714 2.39932 0.421766 2.69543C0.691819 2.99154 1.05809 3.15789 1.44 3.15789ZM22.56 16.8421H1.44C1.05809 16.8421 0.691819 17.0085 0.421766 17.3046C0.151714 17.6007 0 18.0023 0 18.4211C0 18.8398 0.151714 19.2414 0.421766 19.5375C0.691819 19.8336 1.05809 20 1.44 20H22.56C22.9419 20 23.3082 19.8336 23.5782 19.5375C23.8483 19.2414 24 18.8398 24 18.4211C24 18.0023 23.8483 17.6007 23.5782 17.3046C23.3082 17.0085 22.9419 16.8421 22.56 16.8421Z" fill="white"/>
</svg>
