<svg width="21" height="20" viewBox="0 0 21 20" fill="none" xmlns="http://www.w3.org/2000/svg">
<path d="M10.5 0C8.52219 0 6.58879 0.58649 4.9443 1.6853C3.29981 2.78412 2.01809 4.3459 1.26121 6.17316C0.504333 8.00043 0.3063 10.0111 0.692152 11.9509C1.078 13.8907 2.03041 15.6725 3.42894 17.0711C4.82746 18.4696 6.60929 19.422 8.5491 19.8078C10.4889 20.1937 12.4996 19.9957 14.3268 19.2388C16.1541 18.4819 17.7159 17.2002 18.8147 15.5557C19.9135 13.9112 20.5 11.9778 20.5 10C20.4971 7.34874 19.4425 4.80691 17.5678 2.93218C15.6931 1.05745 13.1513 0.00294095 10.5 0ZM6.01574 16.3491C6.53155 15.6438 7.20645 15.0701 7.98561 14.6747C8.76477 14.2792 9.62623 14.0731 10.5 14.0731C11.3738 14.0731 12.2352 14.2792 13.0144 14.6747C13.7936 15.0701 14.4684 15.6438 14.9843 16.3491C13.6737 17.2785 12.1067 17.7777 10.5 17.7777C8.89331 17.7777 7.32632 17.2785 6.01574 16.3491ZM7.90741 9.25926C7.90741 8.74649 8.05946 8.24524 8.34434 7.81889C8.62922 7.39254 9.03413 7.06024 9.50786 6.86401C9.9816 6.66779 10.5029 6.61645 11.0058 6.71648C11.5087 6.81652 11.9707 7.06344 12.3332 7.42602C12.6958 7.7886 12.9427 8.25055 13.0428 8.75347C13.1428 9.25638 13.0915 9.77767 12.8952 10.2514C12.699 10.7251 12.3667 11.13 11.9404 11.4149C11.514 11.6998 11.0128 11.8518 10.5 11.8518C9.8124 11.8518 9.15297 11.5787 8.66676 11.0925C8.18056 10.6063 7.90741 9.94686 7.90741 9.25926ZM16.6111 14.8093C15.8909 13.8933 14.973 13.152 13.9259 12.6407C14.5932 11.965 15.0458 11.107 15.2267 10.1747C15.4076 9.24235 15.3087 8.27736 14.9425 7.4011C14.5763 6.52484 13.9592 5.77644 13.1687 5.25005C12.3782 4.72367 11.4497 4.44281 10.5 4.44281C9.5503 4.44281 8.62181 4.72367 7.83133 5.25005C7.04085 5.77644 6.4237 6.52484 6.05751 7.4011C5.69132 8.27736 5.59244 9.24235 5.77333 10.1747C5.95421 11.107 6.40677 11.965 7.07408 12.6407C6.02704 13.152 5.10911 13.8933 4.38889 14.8093C3.48431 13.6625 2.92088 12.2843 2.76311 10.8323C2.60534 9.38028 2.8596 7.91319 3.49679 6.59896C4.13398 5.28472 5.12835 4.17646 6.36606 3.40103C7.60378 2.62561 9.03482 2.21435 10.4954 2.21435C11.9559 2.21435 13.387 2.62561 14.6247 3.40103C15.8624 4.17646 16.8568 5.28472 17.494 6.59896C18.1311 7.91319 18.3854 9.38028 18.2276 10.8323C18.0699 12.2843 17.5064 13.6625 16.6019 14.8093H16.6111Z" fill="#FEFEFE"/>
</svg>
