<svg width="24" height="25" viewBox="0 0 24 25" fill="none" xmlns="http://www.w3.org/2000/svg">
<path d="M12 0.214294C9.62663 0.214294 7.30655 0.918082 5.33316 2.23666C3.35977 3.55524 1.8217 5.42938 0.913451 7.62209C0.00519943 9.81481 -0.232441 12.2276 0.230582 14.5554C0.693605 16.8831 1.83649 19.0213 3.51472 20.6996C5.19295 22.3778 7.33115 23.5207 9.65892 23.9837C11.9867 24.4467 14.3995 24.2091 16.5922 23.3008C18.7849 22.3926 20.6591 20.8545 21.9776 18.8811C23.2962 16.9077 24 14.5877 24 12.2143C23.9965 9.03278 22.7311 5.98258 20.4814 3.73291C18.2317 1.48324 15.1815 0.217824 12 0.214294ZM6.61889 19.8332C7.23787 18.9868 8.04774 18.2984 8.98273 17.8239C9.91773 17.3493 10.9515 17.102 12 17.102C13.0485 17.102 14.0823 17.3493 15.0173 17.8239C15.9523 18.2984 16.7621 18.9868 17.3811 19.8332C15.8084 20.9485 13.928 21.5476 12 21.5476C10.072 21.5476 8.19158 20.9485 6.61889 19.8332ZM8.88889 11.3254C8.88889 10.7101 9.07136 10.1086 9.41321 9.59696C9.75506 9.08534 10.241 8.68658 10.8094 8.45111C11.3779 8.21564 12.0035 8.15403 12.6069 8.27407C13.2104 8.39411 13.7648 8.69042 14.1999 9.12552C14.635 9.56061 14.9313 10.115 15.0513 10.7185C15.1714 11.322 15.1098 11.9475 14.8743 12.516C14.6388 13.0845 14.2401 13.5703 13.7284 13.9122C13.2168 14.2541 12.6153 14.4365 12 14.4365C11.1749 14.4365 10.3836 14.1087 9.80012 13.5253C9.21667 12.9418 8.88889 12.1505 8.88889 11.3254ZM19.3333 17.9854C18.4691 16.8863 17.3676 15.9967 16.1111 15.3832C16.9119 14.5723 17.455 13.5427 17.672 12.4239C17.8891 11.3051 17.7704 10.1471 17.331 9.09561C16.8916 8.0441 16.151 7.14602 15.2024 6.51436C14.2538 5.8827 13.1396 5.54567 12 5.54567C10.8604 5.54567 9.74617 5.8827 8.7976 6.51436C7.84902 7.14602 7.10844 8.0441 6.66901 9.09561C6.22958 10.1471 6.11093 11.3051 6.32799 12.4239C6.54505 13.5427 7.08813 14.5723 7.88889 15.3832C6.63245 15.9967 5.53094 16.8863 4.66667 17.9854C3.58117 16.6094 2.90505 14.9555 2.71573 13.213C2.5264 11.4706 2.83152 9.71012 3.59615 8.13304C4.36078 6.55596 5.55402 5.22604 7.03927 4.29553C8.52453 3.36502 10.2418 2.87152 11.9944 2.87152C13.7471 2.87152 15.4644 3.36502 16.9496 4.29553C18.4349 5.22604 19.6281 6.55596 20.3927 8.13304C21.1574 9.71012 21.4625 11.4706 21.2732 13.213C21.0838 14.9555 20.4077 16.6094 19.3222 17.9854H19.3333Z" fill="#DD7719"/>
</svg>
